<?xml version="1.0" encoding="UTF-8" standalone="no"?> <svg width="92.7806mm" height="230.011mm"  viewBox="0 0 263 652"  xmlns="http://www.w3.org/2000/svg" xmlns:xlink="http://www.w3.org/1999/xlink"  version="1.2" baseProfile="tiny"> <title>Generated with ETE http://etetoolkit.org</title> <desc>Generated with ETE http://etetoolkit.org</desc> <defs> <radialGradient gradientUnits="userSpaceOnUse" cx="7.5" cy="7.5" r="7.5" fx="5" fy="5" id="gradient1">     <stop offset="0.05" stop-color="#ffffff" stop-opacity="1" />     <stop offset="1" stop-color="#d85644" stop-opacity="1" /> </radialGradient> <radialGradient gradientUnits="userSpaceOnUse" cx="7.5" cy="7.5" r="7.5" fx="5" fy="5" id="gradient2">     <stop offset="0.05" stop-color="#ffffff" stop-opacity="1" />     <stop offset="1" stop-color="#5b5b5b" stop-opacity="1" /> </radialGradient> <radialGradient gradientUnits="userSpaceOnUse" cx="7.5" cy="7.5" r="7.5" fx="5" fy="5" id="gradient3">     <stop offset="0.05" stop-color="#ffffff" stop-opacity="1" />     <stop offset="1" stop-color="#5b5b5b" stop-opacity="1" /> </radialGradient> </defs> <g fill="none" stroke="black" stroke-width="1" fill-rule="evenodd" stroke-linecap="square" stroke-linejoin="bevel" >      <g fill="none" stroke="none" transform="matrix(1,0,0,1,0,0)" font-family=".SF NS Text" font-size="13pt" font-weight="400" font-style="normal"  > <rect x="0" y="0" width="263" height="652"/> </g>      <g fill="none" stroke="none" transform="matrix(1,0,0,1,1,1)" font-family=".SF NS Text" font-size="13pt" font-weight="400" font-style="normal"  > <rect x="0" y="0" width="261" height="600"/> </g>                                                                                                                                                                                                              <g fill="none" stroke="#000000" stroke-opacity="1" stroke-width="1" stroke-linecap="butt" stroke-linejoin="bevel" transform="matrix(1,0,0,1,1,1)" font-family=".SF NS Text" font-size="13pt" font-weight="400" font-style="normal"  > <polyline fill="none" vector-effect="none" points="1,219.91 1,220.91 " /> </g>                  <g fill="#000000" fill-opacity="1" stroke="#000000" stroke-opacity="1" stroke-width="1" stroke-linecap="square" stroke-linejoin="bevel" transform="matrix(1,0,0,1,1,220.91)" font-family=".SF NS Text" font-size="13pt" font-weight="400" font-style="normal"  > <circle cx="0.5" cy="0.5" r="0.5"/> </g>                  <g fill="none" stroke="#000000" stroke-opacity="1" stroke-width="1" stroke-linecap="butt" stroke-linejoin="bevel" transform="matrix(1,0,0,1,2,1)" font-family=".SF NS Text" font-size="13pt" font-weight="400" font-style="normal"  > <polyline fill="none" vector-effect="none" points="67.7376,65.7109 67.7376,375.109 " /> </g>            <g fill="none" stroke="#000000" stroke-opacity="1" stroke-width="1" stroke-linecap="butt" stroke-linejoin="bevel" transform="matrix(1,0,0,1,2,1)" font-family=".SF NS Text" font-size="13pt" font-weight="400" font-style="normal"  > <polyline fill="none" vector-effect="none" points="0,220.41 66.2376,220.41 " /> </g>      <g fill="#000000" fill-opacity="1" stroke="#000000" stroke-opacity="1" stroke-width="1" stroke-linecap="square" stroke-linejoin="bevel" transform="matrix(1,0,0,1,68.2376,220.91)" font-family=".SF NS Text" font-size="13pt" font-weight="400" font-style="normal"  > <circle cx="0.5" cy="0.5" r="0.5"/> </g>                  <g fill="none" stroke="#000000" stroke-opacity="1" stroke-width="1" stroke-linecap="butt" stroke-linejoin="bevel" transform="matrix(1,0,0,1,70.2376,1)" font-family=".SF NS Text" font-size="13pt" font-weight="400" font-style="normal"  > <polyline fill="none" vector-effect="none" points="9.22277,12.5 9.22277,120.422 " /> </g>            <g fill="none" stroke="#000000" stroke-opacity="1" stroke-width="1" stroke-linecap="butt" stroke-linejoin="bevel" transform="matrix(1,0,0,1,70.2376,1)" font-family=".SF NS Text" font-size="13pt" font-weight="400" font-style="normal"  > <polyline fill="none" vector-effect="none" points="0,66.2109 7.72277,66.2109 " /> </g>      <g fill="#000000" fill-opacity="1" stroke="#000000" stroke-opacity="1" stroke-width="1" stroke-linecap="square" stroke-linejoin="bevel" transform="matrix(1,0,0,1,77.9604,66.7109)" font-family=".SF NS Text" font-size="13pt" font-weight="400" font-style="normal"  > <circle cx="0.5" cy="0.5" r="0.5"/> </g>                        <g fill="none" stroke="#000000" stroke-opacity="1" stroke-width="1" stroke-linecap="butt" stroke-linejoin="bevel" transform="matrix(1,0,0,1,79.9604,1)" font-family=".SF NS Text" font-size="13pt" font-weight="400" font-style="normal"  > <polyline fill="none" vector-effect="non-scaling-stroke" points="0,12.5 106.04,12.5 " /> </g>      <g fill="url(#gradient1)" stroke="#d85644" stroke-opacity="1" stroke-width="1" stroke-linecap="square" stroke-linejoin="bevel" transform="matrix(1,0,0,1,186,6)" font-family=".SF NS Text" font-size="13pt" font-weight="400" font-style="normal"  > <circle cx="7.5" cy="7.5" r="7.5"/> </g>                      <g fill="none" stroke="#000000" stroke-opacity="1" stroke-width="1" stroke-linecap="square" stroke-linejoin="bevel" transform="matrix(1,0,0,1,201,6)" font-family="Verdana" font-size="12pt" font-weight="400" font-style="normal"  > <text fill="#000000" fill-opacity="1" stroke="none" xml:space="preserve" x="0" y="12.0625" font-family="Verdana" font-size="12pt" font-weight="400" font-style="normal"   >FOSC-3a</text> </g>      <g fill="none" stroke="#000000" stroke-opacity="1" stroke-width="1" stroke-linecap="butt" stroke-linejoin="bevel" transform="matrix(1,0,0,1,79.9604,26)" font-family=".SF NS Text" font-size="13pt" font-weight="400" font-style="normal"  > <polyline fill="none" vector-effect="none" points="51.401,33.875 51.401,155.969 " /> </g>            <g fill="none" stroke="#000000" stroke-opacity="1" stroke-width="1" stroke-linecap="butt" stroke-linejoin="bevel" transform="matrix(1,0,0,1,79.9604,26)" font-family=".SF NS Text" font-size="13pt" font-weight="400" font-style="normal"  > <polyline fill="none" vector-effect="none" points="0,94.9219 49.901,94.9219 " /> </g>      <g fill="#000000" fill-opacity="1" stroke="#000000" stroke-opacity="1" stroke-width="1" stroke-linecap="square" stroke-linejoin="bevel" transform="matrix(1,0,0,1,129.861,120.422)" font-family=".SF NS Text" font-size="13pt" font-weight="400" font-style="normal"  > <circle cx="0.5" cy="0.5" r="0.5"/> </g>                  <g fill="none" stroke="#000000" stroke-opacity="1" stroke-width="1" stroke-linecap="butt" stroke-linejoin="bevel" transform="matrix(1,0,0,1,131.861,26)" font-family=".SF NS Text" font-size="13pt" font-weight="400" font-style="normal"  > <polyline fill="none" vector-effect="none" points="12.7871,12.5 12.7871,56.75 " /> </g>            <g fill="none" stroke="#000000" stroke-opacity="1" stroke-width="1" stroke-linecap="butt" stroke-linejoin="bevel" transform="matrix(1,0,0,1,131.861,26)" font-family=".SF NS Text" font-size="13pt" font-weight="400" font-style="normal"  > <polyline fill="none" vector-effect="none" points="0,34.375 11.2871,34.375 " /> </g>      <g fill="#000000" fill-opacity="1" stroke="#000000" stroke-opacity="1" stroke-width="1" stroke-linecap="square" stroke-linejoin="bevel" transform="matrix(1,0,0,1,143.149,59.875)" font-family=".SF NS Text" font-size="13pt" font-weight="400" font-style="normal"  > <circle cx="0.5" cy="0.5" r="0.5"/> </g>                        <g fill="none" stroke="#000000" stroke-opacity="1" stroke-width="1" stroke-linecap="butt" stroke-linejoin="bevel" transform="matrix(1,0,0,1,145.149,26)" font-family=".SF NS Text" font-size="13pt" font-weight="400" font-style="normal"  > <polyline fill="none" vector-effect="non-scaling-stroke" points="0,12.5 14.2574,12.5 " /> </g>      <g fill="#d30000" fill-opacity="1" stroke="#d30000" stroke-opacity="1" stroke-width="1" stroke-linecap="square" stroke-linejoin="bevel" transform="matrix(1,0,0,1,159.406,31)" font-family=".SF NS Text" font-size="13pt" font-weight="400" font-style="normal"  > <circle cx="7.5" cy="7.5" r="7.5"/> </g>                      <g fill="none" stroke="#000000" stroke-opacity="1" stroke-width="1" stroke-linecap="square" stroke-linejoin="bevel" transform="matrix(1,0,0,1,201,31)" font-family="Verdana" font-size="12pt" font-weight="400" font-style="normal"  > <text fill="#000000" fill-opacity="1" stroke="none" xml:space="preserve" x="0" y="12.0625" font-family="Verdana" font-size="12pt" font-weight="400" font-style="normal"   >Fol069</text> </g>      <g fill="none" stroke="#000000" stroke-opacity="1" stroke-width="1" stroke-linecap="butt" stroke-linejoin="bevel" transform="matrix(1,0,0,1,145.149,51)" font-family=".SF NS Text" font-size="13pt" font-weight="400" font-style="normal"  > <polyline fill="none" vector-effect="none" points="13.3812,12.5 13.3812,50.5 " /> </g>            <g fill="none" stroke="#000000" stroke-opacity="1" stroke-width="1" stroke-linecap="butt" stroke-linejoin="bevel" transform="matrix(1,0,0,1,145.149,51)" font-family=".SF NS Text" font-size="13pt" font-weight="400" font-style="normal"  > <polyline fill="none" vector-effect="none" points="0,31.25 11.8812,31.25 " /> </g>      <g fill="#000000" fill-opacity="1" stroke="#000000" stroke-opacity="1" stroke-width="1" stroke-linecap="square" stroke-linejoin="bevel" transform="matrix(1,0,0,1,157.03,81.75)" font-family=".SF NS Text" font-size="13pt" font-weight="400" font-style="normal"  > <circle cx="0.5" cy="0.5" r="0.5"/> </g>                              <g fill="#139e04" fill-opacity="1" stroke="#139e04" stroke-opacity="1" stroke-width="1" stroke-linecap="square" stroke-linejoin="bevel" transform="matrix(1,0,0,1,159.03,56)" font-family=".SF NS Text" font-size="13pt" font-weight="400" font-style="normal"  > <rect x="0" y="0" width="15" height="15"/> </g>                      <g fill="none" stroke="#000000" stroke-opacity="1" stroke-width="1" stroke-linecap="square" stroke-linejoin="bevel" transform="matrix(1,0,0,1,201,56)" font-family="Verdana" font-size="12pt" font-weight="400" font-style="normal"  > <text fill="#000000" fill-opacity="1" stroke="none" xml:space="preserve" x="0" y="12.0625" font-family="Verdana" font-size="12pt" font-weight="400" font-style="normal"   >Forc016</text> </g>      <g fill="none" stroke="#000000" stroke-opacity="1" stroke-width="1" stroke-linecap="butt" stroke-linejoin="bevel" transform="matrix(1,0,0,1,159.03,76)" font-family=".SF NS Text" font-size="13pt" font-weight="400" font-style="normal"  > <polyline fill="none" vector-effect="none" points="1.5,12.5 1.5,37.5 " /> </g>                  <g fill="#000000" fill-opacity="1" stroke="#000000" stroke-opacity="1" stroke-width="1" stroke-linecap="square" stroke-linejoin="bevel" transform="matrix(1,0,0,1,159.03,100.5)" font-family=".SF NS Text" font-size="13pt" font-weight="400" font-style="normal"  > <circle cx="0.5" cy="0.5" r="0.5"/> </g>                              <g fill="#139e04" fill-opacity="1" stroke="#139e04" stroke-opacity="1" stroke-width="1" stroke-linecap="square" stroke-linejoin="bevel" transform="matrix(1,0,0,1,161.03,81)" font-family=".SF NS Text" font-size="13pt" font-weight="400" font-style="normal"  > <rect x="0" y="0" width="15" height="15"/> </g>                      <g fill="none" stroke="#000000" stroke-opacity="1" stroke-width="1" stroke-linecap="square" stroke-linejoin="bevel" transform="matrix(1,0,0,1,201,81)" font-family="Verdana" font-size="12pt" font-weight="400" font-style="normal"  > <text fill="#000000" fill-opacity="1" stroke="none" xml:space="preserve" x="0" y="12.0625" font-family="Verdana" font-size="12pt" font-weight="400" font-style="normal"   >Forc024</text> </g>            <g fill="none" stroke="#000000" stroke-opacity="1" stroke-width="1" stroke-linecap="butt" stroke-linejoin="bevel" transform="matrix(1,0,0,1,161.03,101)" font-family=".SF NS Text" font-size="13pt" font-weight="400" font-style="normal"  > <polyline fill="none" vector-effect="non-scaling-stroke" points="0,12.5 0.29703,12.5 " /> </g>      <g fill="#139e04" fill-opacity="1" stroke="#139e04" stroke-opacity="1" stroke-width="1" stroke-linecap="square" stroke-linejoin="bevel" transform="matrix(1,0,0,1,161.327,106)" font-family=".SF NS Text" font-size="13pt" font-weight="400" font-style="normal"  > <rect x="0" y="0" width="15" height="15"/> </g>                      <g fill="none" stroke="#000000" stroke-opacity="1" stroke-width="1" stroke-linecap="square" stroke-linejoin="bevel" transform="matrix(1,0,0,1,201,106)" font-family="Verdana" font-size="12pt" font-weight="400" font-style="normal"  > <text fill="#000000" fill-opacity="1" stroke="none" xml:space="preserve" x="0" y="12.0625" font-family="Verdana" font-size="12pt" font-weight="400" font-style="normal"   >Forc031</text> </g>      <g fill="none" stroke="#000000" stroke-opacity="1" stroke-width="1" stroke-linecap="butt" stroke-linejoin="bevel" transform="matrix(1,0,0,1,131.861,126)" font-family=".SF NS Text" font-size="13pt" font-weight="400" font-style="normal"  > <polyline fill="none" vector-effect="none" points="7.14356,24.5 7.14356,86.4375 " /> </g>            <g fill="none" stroke="#000000" stroke-opacity="1" stroke-width="1" stroke-linecap="butt" stroke-linejoin="bevel" transform="matrix(1,0,0,1,131.861,126)" font-family=".SF NS Text" font-size="13pt" font-weight="400" font-style="normal"  > <polyline fill="none" vector-effect="none" points="0,55.4688 5.64356,55.4688 " /> </g>      <g fill="#000000" fill-opacity="1" stroke="#000000" stroke-opacity="1" stroke-width="1" stroke-linecap="square" stroke-linejoin="bevel" transform="matrix(1,0,0,1,137.505,180.969)" font-family=".SF NS Text" font-size="13pt" font-weight="400" font-style="normal"  > <circle cx="0.5" cy="0.5" r="0.5"/> </g>                  <g fill="none" stroke="#000000" stroke-opacity="1" stroke-width="1" stroke-linecap="butt" stroke-linejoin="bevel" transform="matrix(1,0,0,1,139.505,126)" font-family=".SF NS Text" font-size="13pt" font-weight="400" font-style="normal"  > <polyline fill="none" vector-effect="none" points="9.22277,12.5 9.22277,37.5 " /> </g>            <g fill="none" stroke="#000000" stroke-opacity="1" stroke-width="1" stroke-linecap="butt" stroke-linejoin="bevel" transform="matrix(1,0,0,1,139.505,126)" font-family=".SF NS Text" font-size="13pt" font-weight="400" font-style="normal"  > <polyline fill="none" vector-effect="none" points="0,25 7.72277,25 " /> </g>      <g fill="#000000" fill-opacity="1" stroke="#000000" stroke-opacity="1" stroke-width="1" stroke-linecap="square" stroke-linejoin="bevel" transform="matrix(1,0,0,1,147.228,150.5)" font-family=".SF NS Text" font-size="13pt" font-weight="400" font-style="normal"  > <circle cx="0.5" cy="0.5" r="0.5"/> </g>                        <g fill="none" stroke="#000000" stroke-opacity="1" stroke-width="1" stroke-linecap="butt" stroke-linejoin="bevel" transform="matrix(1,0,0,1,149.228,126)" font-family=".SF NS Text" font-size="13pt" font-weight="400" font-style="normal"  > <polyline fill="none" vector-effect="non-scaling-stroke" points="0,12.5 13.0693,12.5 " /> </g>      <g fill="#d30000" fill-opacity="1" stroke="#d30000" stroke-opacity="1" stroke-width="1" stroke-linecap="square" stroke-linejoin="bevel" transform="matrix(1,0,0,1,162.297,131)" font-family=".SF NS Text" font-size="13pt" font-weight="400" font-style="normal"  > <rect x="0" y="0" width="15" height="15"/> </g>                      <g fill="none" stroke="#000000" stroke-opacity="1" stroke-width="1" stroke-linecap="square" stroke-linejoin="bevel" transform="matrix(1,0,0,1,201,131)" font-family="Verdana" font-size="12pt" font-weight="400" font-style="normal"  > <text fill="#000000" fill-opacity="1" stroke="none" xml:space="preserve" x="0" y="12.0625" font-family="Verdana" font-size="12pt" font-weight="400" font-style="normal"   >Forl_CL57</text> </g>            <g fill="none" stroke="#000000" stroke-opacity="1" stroke-width="1" stroke-linecap="butt" stroke-linejoin="bevel" transform="matrix(1,0,0,1,149.228,151)" font-family=".SF NS Text" font-size="13pt" font-weight="400" font-style="normal"  > <polyline fill="none" vector-effect="non-scaling-stroke" points="0,12.5 13.0693,12.5 " /> </g>      <g fill="url(#gradient2)" stroke="#5b5b5b" stroke-opacity="1" stroke-width="1" stroke-linecap="square" stroke-linejoin="bevel" transform="matrix(1,0,0,1,162.297,156)" font-family=".SF NS Text" font-size="13pt" font-weight="400" font-style="normal"  > <circle cx="7.5" cy="7.5" r="7.5"/> </g>                      <g fill="none" stroke="#000000" stroke-opacity="1" stroke-width="1" stroke-linecap="square" stroke-linejoin="bevel" transform="matrix(1,0,0,1,201,156)" font-family="Verdana" font-size="12pt" font-weight="400" font-style="normal"  > <text fill="#000000" fill-opacity="1" stroke="none" xml:space="preserve" x="0" y="12.0625" font-family="Verdana" font-size="12pt" font-weight="400" font-style="normal"   >FolMN14</text> </g>      <g fill="none" stroke="#000000" stroke-opacity="1" stroke-width="1" stroke-linecap="butt" stroke-linejoin="bevel" transform="matrix(1,0,0,1,139.505,176)" font-family=".SF NS Text" font-size="13pt" font-weight="400" font-style="normal"  > <polyline fill="none" vector-effect="none" points="4.17327,12.5 4.17327,59.875 " /> </g>            <g fill="none" stroke="#000000" stroke-opacity="1" stroke-width="1" stroke-linecap="butt" stroke-linejoin="bevel" transform="matrix(1,0,0,1,139.505,176)" font-family=".SF NS Text" font-size="13pt" font-weight="400" font-style="normal"  > <polyline fill="none" vector-effect="none" points="0,35.9375 2.67327,35.9375 " /> </g>      <g fill="#000000" fill-opacity="1" stroke="#000000" stroke-opacity="1" stroke-width="1" stroke-linecap="square" stroke-linejoin="bevel" transform="matrix(1,0,0,1,142.178,211.438)" font-family=".SF NS Text" font-size="13pt" font-weight="400" font-style="normal"  > <circle cx="0.5" cy="0.5" r="0.5"/> </g>                        <g fill="none" stroke="#000000" stroke-opacity="1" stroke-width="1" stroke-linecap="butt" stroke-linejoin="bevel" transform="matrix(1,0,0,1,144.178,176)" font-family=".SF NS Text" font-size="13pt" font-weight="400" font-style="normal"  > <polyline fill="none" vector-effect="non-scaling-stroke" points="0,12.5 16.3366,12.5 " /> </g>      <g fill="url(#gradient3)" stroke="#5b5b5b" stroke-opacity="1" stroke-width="1" stroke-linecap="square" stroke-linejoin="bevel" transform="matrix(1,0,0,1,160.515,181)" font-family=".SF NS Text" font-size="13pt" font-weight="400" font-style="normal"  > <circle cx="7.5" cy="7.5" r="7.5"/> </g>                      <g fill="none" stroke="#000000" stroke-opacity="1" stroke-width="1" stroke-linecap="square" stroke-linejoin="bevel" transform="matrix(1,0,0,1,201,181)" font-family="Verdana" font-size="12pt" font-weight="400" font-style="normal"  > <text fill="#000000" fill-opacity="1" stroke="none" xml:space="preserve" x="0" y="12.0625" font-family="Verdana" font-size="12pt" font-weight="400" font-style="normal"   >Fo47</text> </g>      <g fill="none" stroke="#000000" stroke-opacity="1" stroke-width="1" stroke-linecap="butt" stroke-linejoin="bevel" transform="matrix(1,0,0,1,144.178,201)" font-family=".SF NS Text" font-size="13pt" font-weight="400" font-style="normal"  > <polyline fill="none" vector-effect="none" points="7.14356,12.5 7.14356,56.75 " /> </g>            <g fill="none" stroke="#000000" stroke-opacity="1" stroke-width="1" stroke-linecap="butt" stroke-linejoin="bevel" transform="matrix(1,0,0,1,144.178,201)" font-family=".SF NS Text" font-size="13pt" font-weight="400" font-style="normal"  > <polyline fill="none" vector-effect="none" points="0,34.375 5.64356,34.375 " /> </g>      <g fill="#000000" fill-opacity="1" stroke="#000000" stroke-opacity="1" stroke-width="1" stroke-linecap="square" stroke-linejoin="bevel" transform="matrix(1,0,0,1,149.822,234.875)" font-family=".SF NS Text" font-size="13pt" font-weight="400" font-style="normal"  > <circle cx="0.5" cy="0.5" r="0.5"/> </g>                        <g fill="none" stroke="#000000" stroke-opacity="1" stroke-width="1" stroke-linecap="butt" stroke-linejoin="bevel" transform="matrix(1,0,0,1,151.822,201)" font-family=".SF NS Text" font-size="13pt" font-weight="400" font-style="normal"  > <polyline fill="none" vector-effect="non-scaling-stroke" points="0,12.5 15.4455,12.5 " /> </g>      <g fill="#d30000" fill-opacity="1" stroke="#d30000" stroke-opacity="1" stroke-width="1" stroke-linecap="square" stroke-linejoin="bevel" transform="matrix(1,0,0,1,167.267,206)" font-family=".SF NS Text" font-size="13pt" font-weight="400" font-style="normal"  > <circle cx="7.5" cy="7.5" r="7.5"/> </g>                      <g fill="none" stroke="#000000" stroke-opacity="1" stroke-width="1" stroke-linecap="square" stroke-linejoin="bevel" transform="matrix(1,0,0,1,201,206)" font-family="Verdana" font-size="12pt" font-weight="400" font-style="normal"  > <text fill="#000000" fill-opacity="1" stroke="none" xml:space="preserve" x="0" y="12.0625" font-family="Verdana" font-size="12pt" font-weight="400" font-style="normal"   >FolMN25</text> </g>      <g fill="none" stroke="#000000" stroke-opacity="1" stroke-width="1" stroke-linecap="butt" stroke-linejoin="bevel" transform="matrix(1,0,0,1,151.822,226)" font-family=".SF NS Text" font-size="13pt" font-weight="400" font-style="normal"  > <polyline fill="none" vector-effect="none" points="14.8663,12.5 14.8663,50.5 " /> </g>            <g fill="none" stroke="#000000" stroke-opacity="1" stroke-width="1" stroke-linecap="butt" stroke-linejoin="bevel" transform="matrix(1,0,0,1,151.822,226)" font-family=".SF NS Text" font-size="13pt" font-weight="400" font-style="normal"  > <polyline fill="none" vector-effect="none" points="0,31.25 13.3663,31.25 " /> </g>      <g fill="#000000" fill-opacity="1" stroke="#000000" stroke-opacity="1" stroke-width="1" stroke-linecap="square" stroke-linejoin="bevel" transform="matrix(1,0,0,1,165.188,256.75)" font-family=".SF NS Text" font-size="13pt" font-weight="400" font-style="normal"  > <circle cx="0.5" cy="0.5" r="0.5"/> </g>                              <g fill="#d30000" fill-opacity="1" stroke="#d30000" stroke-opacity="1" stroke-width="1" stroke-linecap="square" stroke-linejoin="bevel" transform="matrix(1,0,0,1,167.188,231)" font-family=".SF NS Text" font-size="13pt" font-weight="400" font-style="normal"  > <circle cx="7.5" cy="7.5" r="7.5"/> </g>                      <g fill="none" stroke="#000000" stroke-opacity="1" stroke-width="1" stroke-linecap="square" stroke-linejoin="bevel" transform="matrix(1,0,0,1,201,231)" font-family="Verdana" font-size="12pt" font-weight="400" font-style="normal"  > <text fill="#000000" fill-opacity="1" stroke="none" xml:space="preserve" x="0" y="12.0625" font-family="Verdana" font-size="12pt" font-weight="400" font-style="normal"   >Fol051</text> </g>      <g fill="none" stroke="#000000" stroke-opacity="1" stroke-width="1" stroke-linecap="butt" stroke-linejoin="bevel" transform="matrix(1,0,0,1,167.188,251)" font-family=".SF NS Text" font-size="13pt" font-weight="400" font-style="normal"  > <polyline fill="none" vector-effect="none" points="1.5,12.5 1.5,37.5 " /> </g>                  <g fill="#000000" fill-opacity="1" stroke="#000000" stroke-opacity="1" stroke-width="1" stroke-linecap="square" stroke-linejoin="bevel" transform="matrix(1,0,0,1,167.188,275.5)" font-family=".SF NS Text" font-size="13pt" font-weight="400" font-style="normal"  > <circle cx="0.5" cy="0.5" r="0.5"/> </g>                              <g fill="#d30000" fill-opacity="1" stroke="#d30000" stroke-opacity="1" stroke-width="1" stroke-linecap="square" stroke-linejoin="bevel" transform="matrix(1,0,0,1,169.188,256)" font-family=".SF NS Text" font-size="13pt" font-weight="400" font-style="normal"  > <circle cx="7.5" cy="7.5" r="7.5"/> </g>                      <g fill="none" stroke="#000000" stroke-opacity="1" stroke-width="1" stroke-linecap="square" stroke-linejoin="bevel" transform="matrix(1,0,0,1,201,256)" font-family="Verdana" font-size="12pt" font-weight="400" font-style="normal"  > <text fill="#000000" fill-opacity="1" stroke="none" xml:space="preserve" x="0" y="12.0625" font-family="Verdana" font-size="12pt" font-weight="400" font-style="normal"   >Fol072</text> </g>                  <g fill="#d30000" fill-opacity="1" stroke="#d30000" stroke-opacity="1" stroke-width="1" stroke-linecap="square" stroke-linejoin="bevel" transform="matrix(1,0,0,1,169.188,281)" font-family=".SF NS Text" font-size="13pt" font-weight="400" font-style="normal"  > <circle cx="7.5" cy="7.5" r="7.5"/> </g>                      <g fill="none" stroke="#000000" stroke-opacity="1" stroke-width="1" stroke-linecap="square" stroke-linejoin="bevel" transform="matrix(1,0,0,1,201,281)" font-family="Verdana" font-size="12pt" font-weight="400" font-style="normal"  > <text fill="#000000" fill-opacity="1" stroke="none" xml:space="preserve" x="0" y="12.0625" font-family="Verdana" font-size="12pt" font-weight="400" font-style="normal"   >Fol075</text> </g>      <g fill="none" stroke="#000000" stroke-opacity="1" stroke-width="1" stroke-linecap="butt" stroke-linejoin="bevel" transform="matrix(1,0,0,1,70.2376,301)" font-family=".SF NS Text" font-size="13pt" font-weight="400" font-style="normal"  > <polyline fill="none" vector-effect="none" points="54.3713,12.5 54.3713,137.219 " /> </g>            <g fill="none" stroke="#000000" stroke-opacity="1" stroke-width="1" stroke-linecap="butt" stroke-linejoin="bevel" transform="matrix(1,0,0,1,70.2376,301)" font-family=".SF NS Text" font-size="13pt" font-weight="400" font-style="normal"  > <polyline fill="none" vector-effect="none" points="0,74.6094 52.8713,74.6094 " /> </g>      <g fill="#000000" fill-opacity="1" stroke="#000000" stroke-opacity="1" stroke-width="1" stroke-linecap="square" stroke-linejoin="bevel" transform="matrix(1,0,0,1,123.109,375.109)" font-family=".SF NS Text" font-size="13pt" font-weight="400" font-style="normal"  > <circle cx="0.5" cy="0.5" r="0.5"/> </g>                        <g fill="none" stroke="#000000" stroke-opacity="1" stroke-width="1" stroke-linecap="butt" stroke-linejoin="bevel" transform="matrix(1,0,0,1,125.109,301)" font-family=".SF NS Text" font-size="13pt" font-weight="400" font-style="normal"  > <polyline fill="none" vector-effect="non-scaling-stroke" points="0,12.5 5.0495,12.5 " /> </g>      <g fill="#bab108" fill-opacity="1" stroke="#bab108" stroke-opacity="1" stroke-width="1" stroke-linecap="square" stroke-linejoin="bevel" transform="matrix(1,0,0,1,130.158,306)" font-family=".SF NS Text" font-size="13pt" font-weight="400" font-style="normal"  > <circle cx="7.5" cy="7.5" r="7.5"/> </g>                      <g fill="none" stroke="#000000" stroke-opacity="1" stroke-width="1" stroke-linecap="square" stroke-linejoin="bevel" transform="matrix(1,0,0,1,201,306)" font-family="Verdana" font-size="12pt" font-weight="400" font-style="normal"  > <text fill="#000000" fill-opacity="1" stroke="none" xml:space="preserve" x="0" y="12.0625" font-family="Verdana" font-size="12pt" font-weight="400" font-style="normal"   >Fom001</text> </g>      <g fill="none" stroke="#000000" stroke-opacity="1" stroke-width="1" stroke-linecap="butt" stroke-linejoin="bevel" transform="matrix(1,0,0,1,125.109,326)" font-family=".SF NS Text" font-size="13pt" font-weight="400" font-style="normal"  > <polyline fill="none" vector-effect="none" points="7.14356,52.625 7.14356,170.812 " /> </g>            <g fill="none" stroke="#000000" stroke-opacity="1" stroke-width="1" stroke-linecap="butt" stroke-linejoin="bevel" transform="matrix(1,0,0,1,125.109,326)" font-family=".SF NS Text" font-size="13pt" font-weight="400" font-style="normal"  > <polyline fill="none" vector-effect="none" points="0,111.719 5.64356,111.719 " /> </g>      <g fill="#000000" fill-opacity="1" stroke="#000000" stroke-opacity="1" stroke-width="1" stroke-linecap="square" stroke-linejoin="bevel" transform="matrix(1,0,0,1,130.752,437.219)" font-family=".SF NS Text" font-size="13pt" font-weight="400" font-style="normal"  > <circle cx="0.5" cy="0.5" r="0.5"/> </g>                  <g fill="none" stroke="#000000" stroke-opacity="1" stroke-width="1" stroke-linecap="butt" stroke-linejoin="bevel" transform="matrix(1,0,0,1,132.752,326)" font-family=".SF NS Text" font-size="13pt" font-weight="400" font-style="normal"  > <polyline fill="none" vector-effect="none" points="1.5,24.5 1.5,81.75 " /> </g>                  <g fill="#000000" fill-opacity="1" stroke="#000000" stroke-opacity="1" stroke-width="1" stroke-linecap="square" stroke-linejoin="bevel" transform="matrix(1,0,0,1,132.752,378.625)" font-family=".SF NS Text" font-size="13pt" font-weight="400" font-style="normal"  > <circle cx="0.5" cy="0.5" r="0.5"/> </g>                  <g fill="none" stroke="#000000" stroke-opacity="1" stroke-width="1" stroke-linecap="butt" stroke-linejoin="bevel" transform="matrix(1,0,0,1,134.752,326)" font-family=".SF NS Text" font-size="13pt" font-weight="400" font-style="normal"  > <polyline fill="none" vector-effect="none" points="1.5,12.5 1.5,37.5 " /> </g>                  <g fill="#000000" fill-opacity="1" stroke="#000000" stroke-opacity="1" stroke-width="1" stroke-linecap="square" stroke-linejoin="bevel" transform="matrix(1,0,0,1,134.752,350.5)" font-family=".SF NS Text" font-size="13pt" font-weight="400" font-style="normal"  > <circle cx="0.5" cy="0.5" r="0.5"/> </g>                              <g fill="#d30000" fill-opacity="1" stroke="#d30000" stroke-opacity="1" stroke-width="1" stroke-linecap="square" stroke-linejoin="bevel" transform="matrix(1,0,0,1,136.752,331)" font-family=".SF NS Text" font-size="13pt" font-weight="400" font-style="normal"  > <circle cx="7.5" cy="7.5" r="7.5"/> </g>                      <g fill="none" stroke="#000000" stroke-opacity="1" stroke-width="1" stroke-linecap="square" stroke-linejoin="bevel" transform="matrix(1,0,0,1,201,331)" font-family="Verdana" font-size="12pt" font-weight="400" font-style="normal"  > <text fill="#000000" fill-opacity="1" stroke="none" xml:space="preserve" x="0" y="12.0625" font-family="Verdana" font-size="12pt" font-weight="400" font-style="normal"   >Fol074</text> </g>                  <g fill="#d30000" fill-opacity="1" stroke="#d30000" stroke-opacity="1" stroke-width="1" stroke-linecap="square" stroke-linejoin="bevel" transform="matrix(1,0,0,1,136.752,356)" font-family=".SF NS Text" font-size="13pt" font-weight="400" font-style="normal"  > <circle cx="7.5" cy="7.5" r="7.5"/> </g>                      <g fill="none" stroke="#000000" stroke-opacity="1" stroke-width="1" stroke-linecap="square" stroke-linejoin="bevel" transform="matrix(1,0,0,1,201,356)" font-family="Verdana" font-size="12pt" font-weight="400" font-style="normal"  > <text fill="#000000" fill-opacity="1" stroke="none" xml:space="preserve" x="0" y="12.0625" font-family="Verdana" font-size="12pt" font-weight="400" font-style="normal"   >Fol038</text> </g>      <g fill="none" stroke="#000000" stroke-opacity="1" stroke-width="1" stroke-linecap="butt" stroke-linejoin="bevel" transform="matrix(1,0,0,1,134.752,376)" font-family=".SF NS Text" font-size="13pt" font-weight="400" font-style="normal"  > <polyline fill="none" vector-effect="none" points="1.5,12.5 1.5,50.5 " /> </g>                  <g fill="#000000" fill-opacity="1" stroke="#000000" stroke-opacity="1" stroke-width="1" stroke-linecap="square" stroke-linejoin="bevel" transform="matrix(1,0,0,1,134.752,406.75)" font-family=".SF NS Text" font-size="13pt" font-weight="400" font-style="normal"  > <circle cx="0.5" cy="0.5" r="0.5"/> </g>                              <g fill="#d30000" fill-opacity="1" stroke="#d30000" stroke-opacity="1" stroke-width="1" stroke-linecap="square" stroke-linejoin="bevel" transform="matrix(1,0,0,1,136.752,381)" font-family=".SF NS Text" font-size="13pt" font-weight="400" font-style="normal"  > <circle cx="7.5" cy="7.5" r="7.5"/> </g>                      <g fill="none" stroke="#000000" stroke-opacity="1" stroke-width="1" stroke-linecap="square" stroke-linejoin="bevel" transform="matrix(1,0,0,1,201,381)" font-family="Verdana" font-size="12pt" font-weight="400" font-style="normal"  > <text fill="#000000" fill-opacity="1" stroke="none" xml:space="preserve" x="0" y="12.0625" font-family="Verdana" font-size="12pt" font-weight="400" font-style="normal"   >Fol014</text> </g>      <g fill="none" stroke="#000000" stroke-opacity="1" stroke-width="1" stroke-linecap="butt" stroke-linejoin="bevel" transform="matrix(1,0,0,1,136.752,401)" font-family=".SF NS Text" font-size="13pt" font-weight="400" font-style="normal"  > <polyline fill="none" vector-effect="none" points="1.5,12.5 1.5,37.5 " /> </g>                  <g fill="#000000" fill-opacity="1" stroke="#000000" stroke-opacity="1" stroke-width="1" stroke-linecap="square" stroke-linejoin="bevel" transform="matrix(1,0,0,1,136.752,425.5)" font-family=".SF NS Text" font-size="13pt" font-weight="400" font-style="normal"  > <circle cx="0.5" cy="0.5" r="0.5"/> </g>                              <g fill="#d30000" fill-opacity="1" stroke="#d30000" stroke-opacity="1" stroke-width="1" stroke-linecap="square" stroke-linejoin="bevel" transform="matrix(1,0,0,1,138.752,406)" font-family=".SF NS Text" font-size="13pt" font-weight="400" font-style="normal"  > <circle cx="7.5" cy="7.5" r="7.5"/> </g>                      <g fill="none" stroke="#000000" stroke-opacity="1" stroke-width="1" stroke-linecap="square" stroke-linejoin="bevel" transform="matrix(1,0,0,1,201,406)" font-family="Verdana" font-size="12pt" font-weight="400" font-style="normal"  > <text fill="#000000" fill-opacity="1" stroke="none" xml:space="preserve" x="0" y="12.0625" font-family="Verdana" font-size="12pt" font-weight="400" font-style="normal"   >Fol018</text> </g>                  <g fill="#d30000" fill-opacity="1" stroke="#d30000" stroke-opacity="1" stroke-width="1" stroke-linecap="square" stroke-linejoin="bevel" transform="matrix(1,0,0,1,138.752,431)" font-family=".SF NS Text" font-size="13pt" font-weight="400" font-style="normal"  > <circle cx="7.5" cy="7.5" r="7.5"/> </g>                      <g fill="none" stroke="#000000" stroke-opacity="1" stroke-width="1" stroke-linecap="square" stroke-linejoin="bevel" transform="matrix(1,0,0,1,201,431)" font-family="Verdana" font-size="12pt" font-weight="400" font-style="normal"  > <text fill="#000000" fill-opacity="1" stroke="none" xml:space="preserve" x="0" y="12.0625" font-family="Verdana" font-size="12pt" font-weight="400" font-style="normal"   >Fol029</text> </g>      <g fill="none" stroke="#000000" stroke-opacity="1" stroke-width="1" stroke-linecap="butt" stroke-linejoin="bevel" transform="matrix(1,0,0,1,132.752,451)" font-family=".SF NS Text" font-size="13pt" font-weight="400" font-style="normal"  > <polyline fill="none" vector-effect="none" points="1.5,12.5 1.5,78.625 " /> </g>                  <g fill="#000000" fill-opacity="1" stroke="#000000" stroke-opacity="1" stroke-width="1" stroke-linecap="square" stroke-linejoin="bevel" transform="matrix(1,0,0,1,132.752,495.812)" font-family=".SF NS Text" font-size="13pt" font-weight="400" font-style="normal"  > <circle cx="0.5" cy="0.5" r="0.5"/> </g>                              <g fill="#d30000" fill-opacity="1" stroke="#d30000" stroke-opacity="1" stroke-width="1" stroke-linecap="square" stroke-linejoin="bevel" transform="matrix(1,0,0,1,134.752,456)" font-family=".SF NS Text" font-size="13pt" font-weight="400" font-style="normal"  > <circle cx="7.5" cy="7.5" r="7.5"/> </g>                      <g fill="none" stroke="#000000" stroke-opacity="1" stroke-width="1" stroke-linecap="square" stroke-linejoin="bevel" transform="matrix(1,0,0,1,201,456)" font-family="Verdana" font-size="12pt" font-weight="400" font-style="normal"  > <text fill="#000000" fill-opacity="1" stroke="none" xml:space="preserve" x="0" y="12.0625" font-family="Verdana" font-size="12pt" font-weight="400" font-style="normal"   >Fol007</text> </g>      <g fill="none" stroke="#000000" stroke-opacity="1" stroke-width="1" stroke-linecap="butt" stroke-linejoin="bevel" transform="matrix(1,0,0,1,134.752,476)" font-family=".SF NS Text" font-size="13pt" font-weight="400" font-style="normal"  > <polyline fill="none" vector-effect="none" points="1.5,24.5 1.5,81.75 " /> </g>                  <g fill="#000000" fill-opacity="1" stroke="#000000" stroke-opacity="1" stroke-width="1" stroke-linecap="square" stroke-linejoin="bevel" transform="matrix(1,0,0,1,134.752,528.625)" font-family=".SF NS Text" font-size="13pt" font-weight="400" font-style="normal"  > <circle cx="0.5" cy="0.5" r="0.5"/> </g>                  <g fill="none" stroke="#000000" stroke-opacity="1" stroke-width="1" stroke-linecap="butt" stroke-linejoin="bevel" transform="matrix(1,0,0,1,136.752,476)" font-family=".SF NS Text" font-size="13pt" font-weight="400" font-style="normal"  > <polyline fill="none" vector-effect="none" points="1.5,12.5 1.5,37.5 " /> </g>                  <g fill="#000000" fill-opacity="1" stroke="#000000" stroke-opacity="1" stroke-width="1" stroke-linecap="square" stroke-linejoin="bevel" transform="matrix(1,0,0,1,136.752,500.5)" font-family=".SF NS Text" font-size="13pt" font-weight="400" font-style="normal"  > <circle cx="0.5" cy="0.5" r="0.5"/> </g>                              <g fill="#d30000" fill-opacity="1" stroke="#d30000" stroke-opacity="1" stroke-width="1" stroke-linecap="square" stroke-linejoin="bevel" transform="matrix(1,0,0,1,138.752,481)" font-family=".SF NS Text" font-size="13pt" font-weight="400" font-style="normal"  > <circle cx="7.5" cy="7.5" r="7.5"/> </g>                      <g fill="none" stroke="#000000" stroke-opacity="1" stroke-width="1" stroke-linecap="square" stroke-linejoin="bevel" transform="matrix(1,0,0,1,201,481)" font-family="Verdana" font-size="12pt" font-weight="400" font-style="normal"  > <text fill="#000000" fill-opacity="1" stroke="none" xml:space="preserve" x="0" y="12.0625" font-family="Verdana" font-size="12pt" font-weight="400" font-style="normal"   >Fol026</text> </g>                  <g fill="#d30000" fill-opacity="1" stroke="#d30000" stroke-opacity="1" stroke-width="1" stroke-linecap="square" stroke-linejoin="bevel" transform="matrix(1,0,0,1,138.752,506)" font-family=".SF NS Text" font-size="13pt" font-weight="400" font-style="normal"  > <circle cx="7.5" cy="7.5" r="7.5"/> </g>                      <g fill="none" stroke="#000000" stroke-opacity="1" stroke-width="1" stroke-linecap="square" stroke-linejoin="bevel" transform="matrix(1,0,0,1,201,506)" font-family="Verdana" font-size="12pt" font-weight="400" font-style="normal"  > <text fill="#000000" fill-opacity="1" stroke="none" xml:space="preserve" x="0" y="12.0625" font-family="Verdana" font-size="12pt" font-weight="400" font-style="normal"   >Fol073</text> </g>      <g fill="none" stroke="#000000" stroke-opacity="1" stroke-width="1" stroke-linecap="butt" stroke-linejoin="bevel" transform="matrix(1,0,0,1,136.752,526)" font-family=".SF NS Text" font-size="13pt" font-weight="400" font-style="normal"  > <polyline fill="none" vector-effect="none" points="1.5,12.5 1.5,50.5 " /> </g>                  <g fill="#000000" fill-opacity="1" stroke="#000000" stroke-opacity="1" stroke-width="1" stroke-linecap="square" stroke-linejoin="bevel" transform="matrix(1,0,0,1,136.752,556.75)" font-family=".SF NS Text" font-size="13pt" font-weight="400" font-style="normal"  > <circle cx="0.5" cy="0.5" r="0.5"/> </g>                              <g fill="#d30000" fill-opacity="1" stroke="#d30000" stroke-opacity="1" stroke-width="1" stroke-linecap="square" stroke-linejoin="bevel" transform="matrix(1,0,0,1,138.752,531)" font-family=".SF NS Text" font-size="13pt" font-weight="400" font-style="normal"  > <circle cx="7.5" cy="7.5" r="7.5"/> </g>                      <g fill="none" stroke="#000000" stroke-opacity="1" stroke-width="1" stroke-linecap="square" stroke-linejoin="bevel" transform="matrix(1,0,0,1,201,531)" font-family="Verdana" font-size="12pt" font-weight="400" font-style="normal"  > <text fill="#000000" fill-opacity="1" stroke="none" xml:space="preserve" x="0" y="12.0625" font-family="Verdana" font-size="12pt" font-weight="400" font-style="normal"   >Fol004</text> </g>      <g fill="none" stroke="#000000" stroke-opacity="1" stroke-width="1" stroke-linecap="butt" stroke-linejoin="bevel" transform="matrix(1,0,0,1,138.752,551)" font-family=".SF NS Text" font-size="13pt" font-weight="400" font-style="normal"  > <polyline fill="none" vector-effect="none" points="1.5,12.5 1.5,37.5 " /> </g>                  <g fill="#000000" fill-opacity="1" stroke="#000000" stroke-opacity="1" stroke-width="1" stroke-linecap="square" stroke-linejoin="bevel" transform="matrix(1,0,0,1,138.752,575.5)" font-family=".SF NS Text" font-size="13pt" font-weight="400" font-style="normal"  > <circle cx="0.5" cy="0.5" r="0.5"/> </g>                              <g fill="#d30000" fill-opacity="1" stroke="#d30000" stroke-opacity="1" stroke-width="1" stroke-linecap="square" stroke-linejoin="bevel" transform="matrix(1,0,0,1,140.752,556)" font-family=".SF NS Text" font-size="13pt" font-weight="400" font-style="normal"  > <circle cx="7.5" cy="7.5" r="7.5"/> </g>                      <g fill="none" stroke="#000000" stroke-opacity="1" stroke-width="1" stroke-linecap="square" stroke-linejoin="bevel" transform="matrix(1,0,0,1,201,556)" font-family="Verdana" font-size="12pt" font-weight="400" font-style="normal"  > <text fill="#000000" fill-opacity="1" stroke="none" xml:space="preserve" x="0" y="12.0625" font-family="Verdana" font-size="12pt" font-weight="400" font-style="normal"   >Fol002</text> </g>            <g fill="none" stroke="#000000" stroke-opacity="1" stroke-width="1" stroke-linecap="butt" stroke-linejoin="bevel" transform="matrix(1,0,0,1,140.752,576)" font-family=".SF NS Text" font-size="13pt" font-weight="400" font-style="normal"  > <polyline fill="none" vector-effect="non-scaling-stroke" points="0,12.5 15.7426,12.5 " /> </g>      <g fill="#d30000" fill-opacity="1" stroke="#d30000" stroke-opacity="1" stroke-width="1" stroke-linecap="square" stroke-linejoin="bevel" transform="matrix(1,0,0,1,156.495,581)" font-family=".SF NS Text" font-size="13pt" font-weight="400" font-style="normal"  > <circle cx="7.5" cy="7.5" r="7.5"/> </g>                      <g fill="none" stroke="#000000" stroke-opacity="1" stroke-width="1" stroke-linecap="square" stroke-linejoin="bevel" transform="matrix(1,0,0,1,201,581)" font-family="Verdana" font-size="12pt" font-weight="400" font-style="normal"  > <text fill="#000000" fill-opacity="1" stroke="none" xml:space="preserve" x="0" y="12.0625" font-family="Verdana" font-size="12pt" font-weight="400" font-style="normal"   >Fol4287</text> </g>                                                                                                                                                                                                      <g fill="none" stroke="#000000" stroke-opacity="1" stroke-width="1" stroke-linecap="square" stroke-linejoin="bevel" transform="matrix(1,0,0,1,1,602)" font-family=".SF NS Text" font-size="13pt" font-weight="400" font-style="normal"  > <polyline fill="none" vector-effect="none" points="0,5 50,5 " /> </g>      <g fill="none" stroke="#000000" stroke-opacity="1" stroke-width="1" stroke-linecap="square" stroke-linejoin="bevel" transform="matrix(1,0,0,1,1,602)" font-family=".SF NS Text" font-size="13pt" font-weight="400" font-style="normal"  > <polyline fill="none" vector-effect="none" points="0,0 0,10 " /> </g>      <g fill="none" stroke="#000000" stroke-opacity="1" stroke-width="1" stroke-linecap="square" stroke-linejoin="bevel" transform="matrix(1,0,0,1,1,602)" font-family=".SF NS Text" font-size="13pt" font-weight="400" font-style="normal"  > <polyline fill="none" vector-effect="none" points="50,0 50,10 " /> </g>      <g fill="none" stroke="#000000" stroke-opacity="1" stroke-width="1" stroke-linecap="square" stroke-linejoin="bevel" transform="matrix(1,0,0,1,1,612)" font-family=".SF NS Text" font-size="13pt" font-weight="400" font-style="normal"  > <text fill="#000000" fill-opacity="1" stroke="none" xml:space="preserve" x="0" y="12.5625" font-family=".SF NS Text" font-size="13pt" font-weight="400" font-style="normal"   >0.00168333</text> </g>     </g> </svg> 